HIERARCHY
ROOT Hips
{
 OFFSET 0.000000 0.000000 0.000000
 CHANNELS 6 Xposition Yposition Zposition Yrotation Xrotation Zrotation
 JOINT Chest
 {
  OFFSET 0.000000 10.080317 -0.001081
  CHANNELS 3 Yrotation Xrotation Zrotation
  JOINT Chest2
  {
   OFFSET 0.000000 11.096852 0.001963
   CHANNELS 3 Yrotation Xrotation Zrotation
   JOINT Chest3
   {
    OFFSET 0.000000 10.026525 0.000000
    CHANNELS 3 Yrotation Xrotation Zrotation
    JOINT Chest4
    {
     OFFSET 0.000000 10.026525 0.000000
     CHANNELS 3 Yrotation Xrotation Zrotation
     JOINT Neck
     {
      OFFSET 0.000000 14.108171 0.000000
      CHANNELS 3 Yrotation Xrotation Zrotation
      JOINT Head
      {
       OFFSET 0.000000 9.333493 0.004668
       CHANNELS 3 Yrotation Xrotation Zrotation
       End Site
       {
        OFFSET 0.000000 17.851786 0.002438
       }
      }
     }
     JOINT RightCollar
     {
      OFFSET -3.071622 7.873185 0.000000
      CHANNELS 3 Yrotation Xrotation Zrotation
      JOINT RightShoulder
      {
       OFFSET -14.378659 0.000000 0.000000
       CHANNELS 3 Yrotation Xrotation Zrotation
       JOINT RightElbow
       {
        OFFSET -30.778728 0.000000 0.000000
        CHANNELS 3 Yrotation Xrotation Zrotation
        JOINT RightWrist
        {
         OFFSET -25.164217 0.000000 0.000000
         CHANNELS 3 Yrotation Xrotation Zrotation
         End Site
         {
          OFFSET -18.796788 0.000000 0.000000
         }
        }
       }
      }
     }
     JOINT LeftCollar
     {
      OFFSET 3.071622 7.873185 0.000000
      CHANNELS 3 Yrotation Xrotation Zrotation
      JOINT LeftShoulder
      {
       OFFSET 14.378659 0.000000 0.000000
       CHANNELS 3 Yrotation Xrotation Zrotation
       JOINT LeftElbow
       {
        OFFSET 30.778728 0.000000 0.000000
        CHANNELS 3 Yrotation Xrotation Zrotation
        JOINT LeftWrist
        {
         OFFSET 25.164217 0.000000 0.000000
         CHANNELS 3 Yrotation Xrotation Zrotation
         End Site
         {
          OFFSET 18.796788 0.000000 0.000000
         }
        }
       }
      }
     }
    }
   }
  }
 }
 JOINT RightHip
 {
  OFFSET -8.194923 0.005295 0.000540
  CHANNELS 3 Yrotation Xrotation Zrotation
  JOINT RightKnee
  {
   OFFSET 0.000000 -42.473320 -0.000511
   CHANNELS 3 Yrotation Xrotation Zrotation
   JOINT RightAnkle
   {
    OFFSET 0.000000 -41.474259 -0.000865
    CHANNELS 3 Yrotation Xrotation Zrotation
    JOINT RightToe
    {
     OFFSET 0.000000 -7.354994 16.712725
     CHANNELS 3 Yrotation Xrotation Zrotation
     End Site
     {
      OFFSET 0.000000 -1.553903 6.764158
     }
    }
   }
  }
 }
 JOINT LeftHip
 {
  OFFSET 8.194923 0.005295 0.000540
  CHANNELS 3 Yrotation Xrotation Zrotation
  JOINT LeftKnee
  {
   OFFSET 0.000000 -42.473320 -0.000511
   CHANNELS 3 Yrotation Xrotation Zrotation
   JOINT LeftAnkle
   {
    OFFSET 0.000000 -41.474259 -0.000865
    CHANNELS 3 Yrotation Xrotation Zrotation
    JOINT LeftToe
    {
     OFFSET 0.000000 -7.354994 16.712725
     CHANNELS 3 Yrotation Xrotation Zrotation
     End Site
     {
      OFFSET 0.000000 -1.553903 6.764158
     }
    }
   }
  }
 }
}
MOTION
Frames: 15
Frame Time: 0.016667
0.000000 91.111157 0.000000 0.000000 -5.826342 0.000000 0.000000 11.116423 0.000000 0.000000 -5.290081 0.000000 0.000000 0.000000 0.000000 0.000000 0.000000 0.000000 0.000000 12.665069 0.000000 0.000000 0.575450 0.000000 0.000000 0.000000 0.000000 0.000000 0.000000 0.000000 2.337306 0.000000 0.000000 -2.337306 0.000000 0.000000 0.000000 0.000000 0.000000 0.000000 0.000000 0.000000 -2.337306 0.000000 0.000000 2.337306 0.000000 0.000000 0.000000 8.578828 0.000000 0.000000 1.905768 0.000000 0.000000 -4.658254 0.000000 0.000000 0.000000 0.000000 0.000000 8.578828 0.000000 0.000000 1.905768 0.000000 0.000000 -4.658254 0.000000 0.000000 0.000000 0.000000
-44.778995 92.784244 76.735444 -2.215461 -6.087515 0.042081 0.525949 2.759322 -0.532870 0.170686 1.219711 -0.237802 0.170686 1.219711 -0.237802 0.128484 0.914717 -0.178685 0.262217 19.161955 1.058219 0.143227 -0.596738 1.853636 -1.704001 1.282479 10.081956 -2.822524 -1.003058 74.711346 9.550964 7.529084 5.078518 -3.857406 -1.035298 0.016654 -1.172567 1.130443 -5.821820 0.037905 -6.546287 -71.292599 -8.201591 15.595910 -13.685253 4.698379 1.526050 9.806364 -4.803905 7.670954 -3.739312 -1.117060 2.526730 -0.711791 -8.401697 -3.295976 3.641029 -0.058125 0.092175 0.134567 -0.809974 10.238538 0.790524 -6.069358 3.504825 -0.966211 -2.091606 -6.778278 1.024135 0.070207 0.238448 0.037282
-44.728770 92.777087 76.715174 -2.259697 -6.091294 0.031131 0.531267 2.761573 -0.533284 0.173644 1.220421 -0.237966 0.173644 1.220421 -0.237966 0.130703 0.915248 -0.178814 0.270201 19.192426 1.077450 0.152107 -0.540098 1.886122 -1.721190 1.305608 10.099537 -2.826251 -1.024782 74.685947 9.608703 7.580344 5.110843 -3.839544 -1.010981 -0.049017 -1.166444 1.106763 -5.834336 0.015589 -6.515787 -71.323954 -8.228315 15.638215 -13.716557 4.676102 1.530927 9.810501 -4.799542 7.610101 -3.742902 -1.076178 2.607290 -0.737249 -8.415751 -3.336449 3.644953 -0.056570 0.091753 0.131913 -0.843610 10.225049 0.766039 -6.032561 3.527565 -0.977017 -2.063205 -6.807577 1.050936 0.070036 0.244289 0.041630
-44.678713 92.772327 76.700978 -2.291758 -6.091325 0.023596 0.536074 2.758185 -0.540578 0.176319 1.219364 -0.240677 0.176319 1.219364 -0.240677 0.132714 0.914453 -0.180853 0.275847 19.226099 1.096588 0.156792 -0.477479 1.919160 -1.713675 1.309871 10.113453 -2.839389 -1.035508 74.664697 9.645170 7.629939 5.131365 -3.830424 -1.008008 -0.080509 -1.157247 1.090883 -5.831570 -0.009795 -6.478749 -71.357803 -8.252311 15.662069 -13.734041 4.662968 1.543834 9.820937 -4.772979 7.566219 -3.751514 -1.069553 2.660728 -0.761140 -8.429249 -3.364496 3.653970 -0.056722 0.089059 0.127905 -0.916234 10.214567 0.730974 -5.954035 3.542746 -0.990259 -2.043758 -6.824403 1.091090 0.068443 0.240400 0.037808
-44.629754 92.770465 76.690257 -2.320629 -6.089293 0.015946 0.527692 2.753248 -0.550564 0.173282 1.217843 -0.244772 0.173282 1.217843 -0.244772 0.130444 0.913313 -0.183917 0.283243 19.254847 1.113443 0.165351 -0.424049 1.947489 -1.708924 1.307832 10.120111 -2.823219 -1.031506 74.663928 9.698222 7.660955 5.147311 -3.847757 -0.988732 -0.084685 -1.153930 1.065453 -5.827817 -0.009959 -6.449658 -71.412361 -8.250015 15.709830 -13.734070 4.643982 1.555423 9.842619 -4.749975 7.538638 -3.771934 -1.097625 2.681100 -0.756706 -8.433242 -3.370408 3.651468 -0.057680 0.080408 0.119218 -0.996758 10.222774 0.694920 -5.897288 3.518854 -0.993407 -2.009673 -6.817248 1.118941 0.067186 0.231932 0.037579
-44.587818 92.770070 76.690947 -2.348454 -6.086366 0.006395 0.515067 2.750176 -0.564204 0.167696 1.215922 -0.250655 0.167696 1.215922 -0.250655 0.126266 0.911873 -0.188318 0.281040 19.278092 1.127873 0.157055 -0.380727 1.974451 -1.705476 1.295913 10.120281 -2.806924 -1.020580 74.681126 9.731323 7.691361 5.170901 -3.865727 -0.990906 -0.084828 -1.155834 1.053456 -5.810873 -0.017227 -6.419446 -71.462668 -8.267762 15.759484 -13.742663 4.643844 1.570046 9.861670 -4.735630 7.531283 -3.793218 -1.064191 2.672845 -0.749892 -8.443554 -3.361705 3.655330 -0.058129 0.064201 0.105760 -1.041198 10.235927 0.671519 -5.857505 3.496605 -0.996116 -1.988514 -6.810490 1.142384 0.067257 0.217808 0.038203
-44.551733 92.770055 76.696861 -2.376087 -6.083242 -0.000905 0.510870 2.748612 -0.578399 0.165598 1.215417 -0.255798 0.165598 1.215417 -0.255798 0.124703 0.911494 -0.192171 0.276914 19.294241 1.142264 0.145169 -0.350552 2.001986 -1.717416 1.274092 10.116237 -2.798017 -1.009549 74.690993 9.770806 7.729063 5.191489 -3.887121 -0.952076 -0.069887 -1.155444 1.045394 -5.795769 -0.055120 -6.409376 -71.521453 -8.264982 15.794092 -13.750877 4.634891 1.599914 9.865375 -4.728102 7.530183 -3.813776 -1.025692 2.658609 -0.742367 -8.453705 -3.352217 3.660087 -0.059170 0.047558 0.090849 -1.002378 10.257399 0.670845 -5.866412 3.460288 -1.009318 -1.996932 -6.797967 1.167602 0.069531 0.205116 0.039647
-44.521615 92.769767 76.705930 -2.391868 -6.079043 -0.006804 0.507167 2.740563 -0.587389 0.164068 1.211719 -0.260130 0.164068 1.211719 -0.260130 0.123563 0.908720 -0.195416 0.268455 19.308572 1.150106 0.127411 -0.323745 2.018918 -1.730564 1.270942 10.111142 -2.805053 -0.998533 74.688333 9.825572 7.793665 5.220325 -3.910754 -0.917358 -0.053840 -1.156225 1.036386 -5.794321 -0.099398 -6.381847 -71.568058 -8.275584 15.833352 -13.777261 4.639277 1.607401 9.838818 -4.712035 7.530163 -3.828634 -1.027263 2.649043 -0.741664 -8.449634 -3.348584 3.673148 -0.060425 0.034228 0.073405 -0.965367 10.265020 0.664262 -5.881067 3.451721 -1.014227 -1.998630 -6.794839 1.187868 0.071330 0.190147 0.040821
-44.496347 92.768913 76.712514 -2.410101 -6.067828 -0.020875 0.508376 2.749799 -0.592219 0.164253 1.216560 -0.263130 0.164253 1.216560 -0.263130 0.123709 0.912350 -0.197667 0.256086 19.302643 1.156260 0.102760 -0.334517 2.034125 -1.742211 1.224797 10.098060 -2.798974 -0.996715 74.702925 9.869628 7.855466 5.244476 -3.918711 -0.896107 -0.048097 -1.179894 0.996334 -5.794005 -0.130516 -6.373550 -71.607585 -8.301161 15.873302 -13.810487 4.619857 1.624737 9.793225 -4.711315 7.525884 -3.834253 -1.041153 2.628183 -0.738344 -8.417721 -3.332873 3.682780 -0.062741 0.019746 0.056016 -0.933215 10.241518 0.677095 -5.879331 3.490808 -1.035987 -2.011724 -6.816410 1.205785 0.072395 0.177873 0.046701
-44.471115 92.768276 76.715078 -2.417447 -6.060472 -0.030395 0.520145 2.755862 -0.597438 0.168767 1.220438 -0.264920 0.168767 1.220438 -0.264920 0.127100 0.915256 -0.199019 0.230709 19.294664 1.161223 0.054661 -0.348908 2.051286 -1.763744 1.193644 10.083260 -2.793492 -0.982133 74.712599 9.940547 7.896188 5.281511 -3.938443 -0.870868 -0.044182 -1.211669 0.977978 -5.801968 -0.201186 -6.357804 -71.631187 -8.346874 15.897438 -13.857762 4.616489 1.639603 9.769954 -4.687349 7.521925 -3.840572 -1.044148 2.614662 -0.737873 -8.420016 -3.316102 3.693517 -0.060688 0.005159 0.044262 -0.928202 10.202190 0.686434 -5.852328 3.560516 -1.071387 -2.031095 -6.845547 1.232521 0.070205 0.164982 0.049740
-44.451663 92.767974 76.711660 -2.433829 -6.061083 -0.045332 0.506716 2.769011 -0.590861 0.161980 1.227391 -0.262597 0.161980 1.227391 -0.262597 0.122008 0.920474 -0.197265 0.223879 19.276491 1.154737 0.043963 -0.382618 2.041709 -1.735674 1.163794 10.060405 -2.791219 -0.968761 74.705348 9.998146 7.936591 5.320011 -3.931886 -0.846327 -0.032662 -1.199801 0.951652 -5.821120 -0.251887 -6.363855 -71.676938 -8.373588 15.932291 -13.884370 4.609051 1.658271 9.748654 -4.674798 7.515893 -3.840641 -1.025909 2.612122 -0.730494 -8.438277 -3.300924 3.699256 -0.059610 -0.006528 0.031761 -0.939939 10.164267 0.696764 -5.833613 3.639040 -1.100410 -2.018330 -6.880416 1.250545 0.071078 0.157576 0.052668
-44.436886 92.768759 76.708136 -2.458471 -6.070287 -0.056299 0.499863 2.797411 -0.590820 0.159270 1.240242 -0.262669 0.159270 1.240242 -0.262669 0.119981 0.930114 -0.197317 0.213705 19.255731 1.151803 0.025986 -0.421046 2.039710 -1.745865 1.129654 10.054424 -2.739842 -0.958199 74.704458 10.054394 7.934143 5.357450 -3.940616 -0.847509 -0.047836 -1.202115 0.925857 -5.824673 -0.305240 -6.376366 -71.718753 -8.436035 15.951577 -13.922766 4.608270 1.671422 9.731632 -4.666811 7.516842 -3.840001 -0.993755 2.606832 -0.730646 -8.449072 -3.279849 3.702233 -0.058653 -0.018974 0.024420 -0.954447 10.147014 0.705280 -5.809652 3.694759 -1.126951 -2.003056 -6.901062 1.268288 0.070562 0.147900 0.051304
-44.423739 92.769431 76.699947 -2.479523 -6.083489 -0.065274 0.500786 2.820728 -0.590976 0.160584 1.250850 -0.262493 0.160584 1.250850 -0.262493 0.120971 0.938069 -0.197191 0.204864 19.249413 1.161671 0.006595 -0.432542 2.060615 -1.755639 1.105008 10.044227 -2.717958 -0.962075 74.706762 10.090485 7.934454 5.384223 -3.949892 -0.833005 -0.047051 -1.230386 0.907611 -5.826928 -0.348651 -6.388704 -71.769052 -8.488862 15.976572 -13.955819 4.607354 1.671693 9.705578 -4.645844 7.512396 -3.847072 -1.007479 2.619045 -0.713011 -8.447359 -3.269026 3.706035 -0.057680 -0.027485 0.010097 -0.982444 10.131356 0.710028 -5.773828 3.749544 -1.149988 -1.998137 -6.921346 1.288396 0.070133 0.142143 0.045845
-44.417111 92.770282 76.691869 -2.501517 -6.092524 -0.064842 0.504044 2.843208 -0.587525 0.162485 1.260454 -0.261207 0.162485 1.260454 -0.261207 0.122398 0.945271 -0.196233 0.199944 19.254604 1.174744 -0.006473 -0.422688 2.086056 -1.738965 1.100807 10.018554 -2.701637 -0.983155 74.703233 10.112092 7.950495 5.418519 -3.951599 -0.832917 -0.051305 -1.232620 0.884540 -5.829947 -0.393346 -6.389499 -71.829361 -8.550168 16.003708 -14.012072 4.607822 1.667214 9.672299 -4.639167 7.508387 -3.841004 -1.008902 2.620531 -0.737423 -8.454044 -3.252297 3.729091 -0.057023 -0.033620 -0.002450 -0.994359 10.118106 0.708927 -5.747398 3.790723 -1.165209 -1.999064 -6.930611 1.301296 0.070638 0.133583 0.041266
-44.427580 92.770103 76.691425 -2.534459 -6.098919 -0.071117 0.505729 2.860230 -0.584597 0.163258 1.266572 -0.261535 0.163258 1.266572 -0.261535 0.122981 0.949859 -0.196481 0.201227 19.278440 1.199277 -0.011543 -0.378181 2.130353 -1.724927 1.090281 10.010597 -2.674296 -0.980116 74.681962 10.148164 7.972603 5.458751 -3.978237 -0.815640 -0.044247 -1.231436 0.873624 -5.836500 -0.457662 -6.397570 -71.856481 -8.598235 15.993069 -14.089019 4.611052 1.671799 9.620654 -4.635791 7.509357 -3.828508 -0.981429 2.616656 -0.746894 -8.426447 -3.246911 3.734297 -0.055401 -0.034900 -0.011424 -0.956112 10.128047 0.730311 -5.751296 3.794905 -1.166563 -2.003008 -6.936130 1.294242 0.071602 0.131894 0.038290
